<?xml version="1.0" encoding="utf-8"?>
<!-- Generator: Adobe Illustrator 24.1.1, SVG Export Plug-In . SVG Version: 6.00 Build 0)  -->
<svg version="1.1" id="Layer_1" xmlns="http://www.w3.org/2000/svg" xmlns:xlink="http://www.w3.org/1999/xlink" x="0px" y="0px"
	 viewBox="0 0 1616.41 544.7" style="enable-background:new 0 0 1616.41 544.7;" xml:space="preserve">
<style type="text/css">
	.st0{fill:#171E1E;}
	.st1{fill:#00E5DF;}
</style>
<g>
	<path class="st0" d="M498.75,309.68c5.93-2.28,11.45-5.88,16.56-10.81l22.72,24.63c-13.87,15.87-34.12,23.81-60.76,23.81
		c-16.6,0-31.29-3.24-44.06-9.72c-12.77-6.47-22.62-15.46-29.56-26.96c-6.93-11.49-10.4-24.54-10.4-39.14
		c0-14.41,3.42-27.41,10.26-39c6.84-11.59,16.24-20.62,28.19-27.1c11.95-6.47,25.4-9.72,40.37-9.72c14.05,0,26.82,2.97,38.31,8.9
		c11.49,5.93,20.66,14.5,27.51,25.73c6.84,11.22,10.26,24.49,10.26,39.82L439.22,291.2c3.1,7.3,7.98,12.77,14.64,16.42
		c6.66,3.65,14.82,5.48,24.49,5.48C486.02,313.1,492.82,311.96,498.75,309.68z M445.79,238.39c-6.75,6.93-10.31,16.51-10.67,28.73
		l71.7-13.96c-2.01-7.66-6.12-13.77-12.32-18.33c-6.2-4.56-13.68-6.84-22.44-6.84C461.3,227.99,452.54,231.45,445.79,238.39z"/>
	<path class="st0" d="M585.77,342.79c-11.68-3.01-20.98-6.8-27.92-11.36l14.23-30.65c6.57,4.2,14.5,7.62,23.81,10.26
		c9.31,2.65,18.43,3.97,27.37,3.97c18.06,0,27.09-4.47,27.09-13.41c0-4.2-2.46-7.2-7.39-9.03c-4.92-1.82-12.5-3.37-22.71-4.65
		c-12.04-1.82-21.99-3.92-29.83-6.29c-7.85-2.37-14.64-6.57-20.39-12.59c-5.75-6.02-8.62-14.6-8.62-25.73
		c0-9.31,2.69-17.56,8.07-24.77c5.38-7.21,13.23-12.82,23.54-16.83c10.31-4.01,22.48-6.02,36.54-6.02c10.4,0,20.75,1.14,31.06,3.42
		c10.31,2.28,18.84,5.43,25.59,9.44l-14.23,30.38c-12.96-7.3-27.09-10.95-42.42-10.95c-9.12,0-15.97,1.28-20.53,3.83
		c-4.56,2.56-6.84,5.84-6.84,9.85c0,4.56,2.46,7.76,7.39,9.58c4.93,1.83,12.77,3.56,23.54,5.2c12.04,2.01,21.89,4.15,29.56,6.43
		c7.66,2.28,14.32,6.43,19.98,12.45c5.65,6.02,8.48,14.41,8.48,25.18c0,9.12-2.74,17.24-8.21,24.36
		c-5.47,7.12-13.46,12.64-23.95,16.56c-10.5,3.92-22.95,5.88-37.36,5.88C609.39,347.31,597.44,345.8,585.77,342.79z"/>
	<path class="st0" d="M731.09,342.79c-11.68-3.01-20.98-6.8-27.92-11.36l14.23-30.65c6.57,4.2,14.5,7.62,23.81,10.26
		c9.31,2.65,18.43,3.97,27.37,3.97c18.06,0,27.09-4.47,27.09-13.41c0-4.2-2.46-7.2-7.39-9.03c-4.92-1.82-12.5-3.37-22.71-4.65
		c-12.04-1.82-21.99-3.92-29.83-6.29c-7.85-2.37-14.64-6.57-20.39-12.59c-5.75-6.02-8.62-14.6-8.62-25.73
		c0-9.31,2.69-17.56,8.07-24.77c5.38-7.21,13.23-12.82,23.54-16.83c10.31-4.01,22.48-6.02,36.54-6.02c10.4,0,20.75,1.14,31.06,3.42
		c10.3,2.28,18.84,5.43,25.59,9.44l-14.23,30.38c-12.96-7.3-27.09-10.95-42.42-10.95c-9.12,0-15.97,1.28-20.53,3.83
		c-4.56,2.56-6.84,5.84-6.84,9.85c0,4.56,2.46,7.76,7.39,9.58c4.93,1.83,12.77,3.56,23.54,5.2c12.04,2.01,21.89,4.15,29.56,6.43
		c7.66,2.28,14.32,6.43,19.98,12.45c5.66,6.02,8.48,14.41,8.48,25.18c0,9.12-2.74,17.24-8.21,24.36
		c-5.47,7.12-13.46,12.64-23.94,16.56c-10.5,3.92-22.95,5.88-37.36,5.88C754.71,347.31,742.76,345.8,731.09,342.79z"/>
	<path class="st0" d="M1009.33,197.88v147.24h-40.78v-16.97c-10.58,12.77-25.91,19.16-45.98,19.16c-13.87,0-26.41-3.1-37.63-9.31
		c-11.22-6.2-20.02-15.05-26.41-26.55c-6.39-11.5-9.58-24.81-9.58-39.96c0-15.14,3.19-28.46,9.58-39.96
		c6.38-11.49,15.19-20.34,26.41-26.55c11.22-6.2,23.77-9.3,37.63-9.3c18.79,0,33.48,5.93,44.06,17.79v-15.6H1009.33z M956.78,301.19
		c7.12-7.39,10.67-17.28,10.67-29.69c0-12.41-3.56-22.3-10.67-29.69c-7.12-7.39-16.06-11.08-26.82-11.08
		c-10.95,0-19.98,3.69-27.09,11.08c-7.12,7.39-10.67,17.29-10.67,29.69c0,12.41,3.55,22.31,10.67,29.69
		c7.12,7.39,16.15,11.09,27.09,11.09C940.73,312.28,949.67,308.58,956.78,301.19z"/>
	<path class="st0" d="M1166.59,212.11c11.22,10.95,16.83,27.19,16.83,48.71v84.3h-42.69v-77.73c0-11.67-2.56-20.39-7.66-26.14
		c-5.11-5.75-12.5-8.62-22.17-8.62c-10.77,0-19.34,3.33-25.73,9.99c-6.39,6.66-9.58,16.56-9.58,29.69v72.8h-42.69V197.88h40.78
		v17.24c5.66-6.2,12.68-10.99,21.07-14.37c8.39-3.37,17.61-5.06,27.64-5.06C1140.63,195.69,1155.37,201.16,1166.59,212.11z"/>
	<path class="st1" d="M1324.65,197.88v18.88c-11.13-14.05-27.37-21.07-48.71-21.07c-13.5,0-25.86,2.97-37.08,8.9
		c-11.22,5.93-20.12,14.28-26.69,25.04c-6.57,10.77-9.85,23.17-9.85,37.22c0,14.05,3.29,26.46,9.85,37.22
		c6.57,10.77,15.47,19.11,26.69,25.04c11.22,5.93,23.58,8.9,37.08,8.9c19.89,0,35.39-6.11,46.52-18.34v6.29
		c0,13.51-3.51,23.58-10.54,30.24c-7.02,6.66-17.93,9.99-32.71,9.99c-9.49,0-18.98-1.51-28.46-4.52
		c-9.49-3.01-17.34-7.08-23.54-12.18l-16.97,30.66c8.39,6.57,18.98,11.58,31.75,15.05c12.77,3.46,26.27,5.2,40.5,5.2
		c27,0,47.53-6.57,61.57-19.71c14.05-13.14,21.07-33.21,21.07-60.21V197.88H1324.65z M1305.35,292.98
		c-7.21,6.66-16.47,9.99-27.78,9.99c-6.42,0-12.17-1.11-17.3-3.25l-16.63,4.8l3.78-13.79c-5.8-6.33-8.71-14.29-8.71-23.88
		c0-10.76,3.65-19.47,10.95-26.14c7.3-6.66,16.6-9.99,27.92-9.99c11.31,0,20.57,3.33,27.78,9.99c7.2,6.66,10.81,15.37,10.81,26.14
		C1316.16,277.61,1312.55,286.33,1305.35,292.98z"/>
	<path class="st1" d="M1420.38,337.59c-12.32-6.47-21.94-15.46-28.87-26.96c-6.94-11.49-10.4-24.54-10.4-39.14
		c0-14.6,3.47-27.64,10.4-39.14c6.93-11.49,16.55-20.48,28.87-26.96c12.31-6.47,26.22-9.72,41.73-9.72c15.51,0,29.38,3.24,41.6,9.72
		c12.22,6.48,21.8,15.46,28.74,26.96c6.93,11.5,10.4,24.54,10.4,39.14c0,14.6-3.47,27.64-10.4,39.14
		c-6.94,11.5-16.51,20.48-28.74,26.96c-12.23,6.48-26.1,9.72-41.6,9.72C1446.6,347.31,1432.69,344.07,1420.38,337.59z
		 M1489.07,301.19c7.02-7.39,10.54-17.28,10.54-29.69c0-12.41-3.51-22.3-10.54-29.69c-7.02-7.39-16.01-11.08-26.96-11.08
		c-10.95,0-19.98,3.69-27.09,11.08c-7.12,7.39-10.67,17.29-10.67,29.69c0,12.41,3.55,22.31,10.67,29.69
		c7.12,7.39,16.15,11.09,27.09,11.09C1473.06,312.28,1482.04,308.58,1489.07,301.19z"/>
	<path class="st0" d="M360.6,213.26c10.93,10.93,16.4,27.33,16.4,49.2v84.89h-43v-78.27c0-11.76-2.44-20.53-7.3-26.32
		c-4.87-5.79-11.81-8.68-20.81-8.68c-10.11,0-18.1,3.26-23.98,9.78c-5.88,6.52-8.82,16.22-8.82,29.08v74.41h-43v-78.27
		c0-23.33-9.37-35-28.11-35c-9.92,0-17.82,3.26-23.7,9.78c-5.88,6.52-8.82,16.22-8.82,29.08v74.41h-42.99V199.07h41.07v17.09
		c5.51-6.24,12.26-11.02,20.26-14.33c7.99-3.31,16.76-4.96,26.32-4.96c10.47,0,19.93,2.07,28.39,6.2
		c8.45,4.13,15.25,10.15,20.4,18.05c6.06-7.72,13.73-13.69,23.01-17.91c9.28-4.22,19.43-6.34,30.46-6.34
		C334.92,196.87,349.66,202.33,360.6,213.26z"/>
</g>
</svg>
